<svg width="55" height="76" viewBox="0 0 55 76" fill="none" xmlns="http://www.w3.org/2000/svg">
<g clip-path="url(#clip0_101_0)" filter="url(#filter0_d_101_0)">
<path d="M52.8517 35.794C52.5558 32.6636 51.6187 29.8411 50.0403 27.3778C48.3633 24.7092 46.4891 23.1183 44.6148 22.1433C41.5568 20.6037 38.4001 20.7577 35.638 20.809C23.1593 21.0656 19.9533 13.4704 18.3256 8.95439C21.8769 15.1126 26.6612 18.3457 31.5935 17.268C27.4997 -3.10548 9.00356 1.41056 9.00356 1.41056C10.5326 16.6009 15.5635 23.6828 27.4504 25.2224C29.9165 25.5303 32.7279 25.6329 35.8353 25.479C39.9784 25.2737 43.2337 25.1198 46.3411 29.995C48.7086 33.69 49.2018 38.9245 47.6235 44.6208C47.5248 44.9287 47.4262 45.288 47.3275 45.5959C44.5161 54.7306 37.167 63.1982 27.7463 68.1247C14.6264 61.3507 7.67184 50.5738 6.53741 42.722C6.14283 39.7969 6.2908 35.6401 9.44747 32.7149C15.0703 27.4804 20.2985 32.2017 25.1815 37.4362C25.5268 37.8468 25.872 38.1547 26.168 38.4626C26.5132 38.8218 26.9571 39.0271 27.401 39.0784V39.1297C27.845 39.0784 28.2889 38.8218 28.6341 38.5139C28.9301 38.206 29.2753 37.8468 29.6206 37.4875C33.4185 33.4334 37.3643 29.7384 41.5568 30.6108C38.696 27.3265 32.8266 27.9936 27.401 33.2281V33.1768C23.2579 28.7634 15.0703 21.3222 6.53741 29.2252C2.93683 32.6123 1.40782 37.6415 2.19699 43.3892C3.77532 54.5253 13.6892 66.3286 26.8585 72.7947C27.1544 72.9487 27.4997 73 27.7956 73C28.1409 73 28.4368 72.9487 28.7328 72.7947C40.225 67.1497 48.9059 57.0912 51.9146 45.8525C51.9146 45.7498 51.9639 45.6985 51.9639 45.5959C52.4078 43.9537 52.7038 42.3115 52.8517 40.7719C53.049 39.0271 53.049 37.3849 52.8517 35.794Z" fill="url(#paint0_linear_101_0)"/>
</g>
<defs>
<filter id="filter0_d_101_0" x="0" y="0" width="55" height="76" filterUnits="userSpaceOnUse" color-interpolation-filters="sRGB">
<feFlood flood-opacity="0" result="BackgroundImageFix"/>
<feColorMatrix in="SourceAlpha" type="matrix" values="0 0 0 0 0 0 0 0 0 0 0 0 0 0 0 0 0 0 127 0" result="hardAlpha"/>
<feOffset dy="1"/>
<feGaussianBlur stdDeviation="1"/>
<feColorMatrix type="matrix" values="0 0 0 0 0 0 0 0 0 0 0 0 0 0 0 0 0 0 0.25 0"/>
<feBlend mode="normal" in2="BackgroundImageFix" result="effect1_dropShadow_101_0"/>
<feBlend mode="normal" in="SourceGraphic" in2="effect1_dropShadow_101_0" result="shape"/>
</filter>
<linearGradient id="paint0_linear_101_0" x1="31.2291" y1="0.984497" x2="30.138" y2="72.984" gradientUnits="userSpaceOnUse">
<stop stop-color="#98D67D"/>
<stop offset="1" stop-color="#569F36"/>
</linearGradient>
<clipPath id="clip0_101_0">
<rect width="51" height="72" fill="white" transform="translate(2 1)"/>
</clipPath>
</defs>
</svg>
